Inverse Dynamics Generalized Forces
version=1
nRows=6
nColumns=34
inDegrees=no
endheader 
time	pelvis_tilt_moment	pelvis_list_moment	pelvis_rotation_moment	pelvis_tx_force	pelvis_ty_force	pelvis_tz_force	hip_flexion_l_moment	hip_adduction_l_moment	hip_rotation_l_moment	hip_flexion_r_moment	hip_adduction_r_moment	hip_rotation_r_moment	knee_angle_l_moment	knee_angle_r_moment	ankle_angle_l_moment	ankle_angle_r_moment	subtalar_angle_l_moment	subtalar_angle_r_moment	mtp_angle_l_moment	mtp_angle_r_moment	lumbar_extension_moment	lumbar_bending_moment	lumbar_rotation_moment	arm_flex_l_moment	arm_add_l_moment	arm_rot_l_moment	arm_flex_r_moment	arm_add_r_moment	arm_rot_r_moment	elbow_flex_l_moment	elbow_flex_r_moment	pro_sup_l_moment	pro_sup_r_moment	
          5.55000000	          0.00000002	          0.00000000	         -0.00000002	          0.00000008	         -0.00000010	         -0.00000007	         54.28221336	          9.44348708	         -0.12001803	         25.07548965	         26.31720300	         -7.33544416	         -7.27081326	         -4.23426315	          2.23782152	          0.96316017	         -0.57475938	          1.34629977	         -0.07683782	         -0.09078561	        -58.41735156	        -22.99013985	         25.84898521	         -6.80286074	       -154.22936827	        -12.30189538	         98.48273100	        141.01540824	        -31.25374248	         92.79793033	         18.22267542	         -0.00067510	         -2.60525075	
          5.56000000	         -0.00000000	          0.00000002	          0.00000002	         -0.00000002	         -0.00000007	         -0.00000003	         47.54600456	          7.81061236	         -0.46141179	         24.35532697	         16.08257347	         -6.41848515	         -6.74929676	        -12.06585055	          1.99469664	          1.94895458	         -0.27676689	          0.37604330	         -0.07906977	         -0.10658780	        -47.31891309	        -25.55849157	         16.29217408	         32.65855849	       -152.34585470	        -43.90732458	        112.15651285	        143.33397245	        -44.80163732	        107.99629986	          4.11762208	         -2.33830211	         -2.85073698	
          5.57000000	         -0.00000002	          0.00000004	          0.00000004	         -0.00000007	          0.00000001	         -0.00000005	         13.28323070	        -17.10258310	          1.85163687	          5.29967764	         17.67677919	         -5.25866967	         -1.41854421	         -2.38584019	          1.51396252	          1.61632051	         -0.69367397	          0.22197093	         -0.05789258	         -0.09896328	          6.46762187	        -38.94416137	        -26.52184675	         62.76934766	       -151.04887434	        -66.49651217	        122.46432135	        144.84172361	        -55.80067904	         84.67968822	        -14.46608369	         -3.93173137	         -2.64130884	
          5.58000000	          0.00000000	         -0.00000001	         -0.00000000	         -0.00000000	          0.00000003	          0.00000001	          1.79025166	        -19.72799817	          1.57828927	          9.77304066	          9.65445462	         -4.27183552	          0.29574337	         -5.86947243	          0.99406907	          1.98208904	         -0.72160661	         -0.06643186	         -0.02832087	         -0.12848207	          7.26913531	        -27.52510146	        -28.43927437	         85.19550449	        -75.66255364	        -63.05053167	         55.17914499	        136.06343975	        -35.93214948	         62.00976998	        -35.26366875	         -4.17106519	         -1.00210404	
          5.59000000	          0.00000000	         -0.00000002	         -0.00000002	          0.00000004	          0.00000004	          0.00000004	         -2.42393283	        -19.18089876	          1.78417431	         -5.91981763	         16.19521703	         -3.07822858	          2.51569245	          6.34274513	          0.52793662	          1.29699676	         -0.50984853	         -0.08491563	         -0.00746294	         -0.10057271	         17.00678406	        -33.22264635	        -29.38182369	        102.01863316	        -19.27365095	        -56.68146578	          5.84808183	         73.03640005	         -9.27900168	         49.84878349	        -23.68178221	         -3.55878967	          0.16521943	
          5.60000000	         -0.00000002	          0.00000001	         -0.00000000	          0.00000000	          0.00000003	         -0.00000000	        -10.88173889	        -13.58771650	          0.19651866	        -15.08314924	          5.39191138	          1.17749401	          5.94077614	         10.18763700	          0.07695535	          0.56604890	         -0.20050271	         -0.38043977	          0.00320511	         -0.04012011	         28.16530931	        -14.19931993	        -29.21024805	         93.71997407	         23.05759154	        -33.86377754	         -7.49122253	         23.74195089	          3.89537419	         42.05384799	        -10.59778859	         -1.83606153	          0.74230918	
